<?xml version="1.0" standalone="no"?>
<!DOCTYPE svg PUBLIC "-//W3C//DTD SVG 20010904//EN"
 "http://www.w3.org/TR/2001/REC-SVG-20010904/DTD/svg10.dtd">
<svg version="1.0" xmlns="http://www.w3.org/2000/svg"
 width="708.000000pt" height="708.000000pt" viewBox="0 0 708.000000 708.000000"
 preserveAspectRatio="xMidYMid meet">
<metadata>
Created by potrace 1.14, written by Peter Selinger 2001-2017
</metadata>
<g transform="translate(0.000000,708.000000) scale(0.100000,-0.100000)"
fill="#000000" stroke="none">
<path d="M3182 5628 c-8 -8 -12 -65 -12 -190 l0 -178 -175 0 c-156 0 -175 -2
-183 -17 -5 -10 -8 -81 -7 -158 1 -77 3 -189 4 -248 l1 -108 28 3 27 3 3 228
2 227 150 0 150 0 2 -227 3 -228 30 0 30 0 3 418 2 417 220 0 220 0 0 -421 0
-420 28 3 27 3 3 228 2 227 160 0 160 0 0 -230 0 -230 30 0 30 0 0 260 c0 143
-1 261 -2 262 -2 1 -86 4 -188 7 l-185 6 -3 180 c-2 128 -6 181 -15 187 -21
13 -531 10 -545 -4z"/>
<path d="M3433 5403 c15 -2 27 -5 27 -6 0 -18 -65 -165 -77 -174 -14 -11 -10
-13 28 -12 24 1 34 4 22 6 -19 4 -20 7 -11 34 9 26 14 29 54 29 24 0 44 -3 44
-7 0 -5 3 -18 6 -30 5 -17 1 -22 -18 -26 -12 -2 -3 -5 22 -5 25 0 40 2 33 4
-6 3 -26 48 -44 100 l-32 94 -41 -1 c-30 -2 -34 -3 -13 -6z m71 -90 c7 -21 4
-23 -28 -23 -20 0 -36 1 -36 3 0 2 8 26 17 53 l17 49 12 -30 c6 -17 15 -40 18
-52z"/>
<path d="M2912 5093 l3 -38 103 -3 102 -3 0 41 0 40 -106 0 -105 0 3 -37z"/>
<path d="M3802 5093 l3 -38 100 0 100 0 3 38 3 37 -106 0 -106 0 3 -37z"/>
<path d="M2912 4963 l3 -38 103 -3 102 -3 0 41 0 40 -106 0 -105 0 3 -37z"/>
<path d="M3310 4980 c0 -13 7 -20 19 -20 24 0 29 -12 29 -88 1 -34 1 -77 1
-95 l1 -34 100 1 100 1 0 108 c0 100 1 107 20 107 13 0 20 7 20 20 0 19 -7 20
-145 20 -138 0 -145 -1 -145 -20z"/>
<path d="M3802 4963 l3 -38 100 0 100 0 3 38 3 37 -106 0 -106 0 3 -37z"/>
<path d="M4413 4224 c-26 -13 -33 -23 -33 -45 0 -34 23 -49 74 -49 28 0 38 5
50 27 12 24 12 29 -3 41 -9 7 -10 11 -3 7 6 -3 12 -2 12 3 0 8 -43 32 -58 32
-4 0 -22 -8 -39 -16z"/>
<path d="M1620 4191 c-5 -11 -10 -34 -10 -51 0 -29 -9 -76 -45 -240 -7 -36
-17 -81 -20 -101 l-7 -37 42 -4 c37 -3 43 -1 51 20 l9 23 31 -23 c23 -17 44
-23 83 -23 64 1 110 26 148 80 22 33 27 51 28 100 0 72 -22 114 -73 138 -36
17 -97 23 -97 10 0 -5 -13 -9 -29 -10 -23 -2 -30 3 -33 22 -3 13 -1 22 3 19 5
-3 9 6 9 20 0 13 4 36 9 49 9 23 8 24 -39 26 -40 1 -51 -2 -60 -18z m183 -199
c21 -19 23 -82 2 -122 -11 -20 -25 -31 -49 -35 -61 -12 -97 25 -91 93 3 38 20
61 59 77 32 14 51 11 79 -13z"/>
<path d="M2290 4183 c0 -24 -12 -80 -25 -121 -4 -9 -12 -7 -34 9 -24 18 -37
20 -81 15 -109 -13 -158 -68 -165 -181 -4 -53 26 -122 47 -109 7 4 8 2 4 -5
-5 -7 5 -17 28 -26 47 -20 74 -19 119 4 27 14 37 15 37 6 0 -8 17 -14 45 -17
49 -3 51 -1 60 63 5 40 7 46 33 164 12 50 27 120 35 158 l14 67 -58 0 c-58 0
-59 -1 -59 -27z m-60 -193 c32 -32 27 -94 -9 -131 -59 -59 -136 -22 -128 61 7
76 89 118 137 70z"/>
<path d="M2927 4193 c-3 -5 -10 -44 -17 -88 -6 -44 -23 -137 -36 -206 -13 -69
-24 -130 -24 -137 0 -8 18 -12 50 -12 50 0 50 0 50 33 0 21 9 40 24 55 31 29
41 28 63 -8 9 -16 20 -30 24 -30 4 0 10 -11 13 -25 6 -23 10 -25 71 -25 l65 0
-32 53 c-18 28 -37 55 -42 59 -6 4 -7 8 -2 8 5 0 3 6 -3 14 -14 17 -33 78 -22
72 4 -3 25 10 47 28 21 19 52 45 69 59 l30 25 -58 3 c-56 4 -59 3 -123 -48
-90 -73 -96 -71 -72 25 10 42 21 94 23 115 l5 37 -50 0 c-27 0 -51 -3 -53 -7z"/>
<path d="M3325 4063 c-30 -146 -40 -202 -51 -270 l-7 -43 52 0 c32 0 50 4 46
10 -3 6 -2 10 3 10 6 0 9 6 8 13 -2 22 37 161 52 185 8 12 21 22 28 22 8 0 14
4 14 9 0 11 39 3 58 -12 15 -12 15 -71 -2 -165 l-13 -73 40 3 c46 3 46 3 72
147 12 71 12 88 1 116 -26 61 -81 80 -151 51 -19 -8 -37 -11 -39 -7 -3 4 1 34
9 67 8 32 14 62 15 67 0 4 -24 7 -53 7 l-53 0 -29 -137z"/>
<path d="M4218 4193 c-18 -5 -38 -77 -38 -141 0 -20 -9 -73 -19 -117 -11 -44
-17 -84 -14 -88 3 -5 1 -12 -4 -16 -6 -3 -13 -25 -17 -49 l-6 -42 50 1 c38 2
50 6 51 18 0 9 2 23 4 31 3 8 16 69 30 135 14 66 27 126 30 133 2 6 0 12 -5
12 -4 0 -2 14 7 31 8 16 13 39 10 50 -3 10 -1 17 4 13 5 -3 9 2 9 10 0 9 -8
16 -17 17 -10 0 -27 2 -38 3 -11 2 -28 1 -37 -1z"/>
<path d="M1251 4161 c-12 -16 -21 -32 -21 -37 0 -4 -14 -25 -30 -48 -50 -68
-99 -146 -92 -146 4 0 2 -4 -3 -8 -16 -11 -105 -145 -100 -150 2 -2 26 -5 52
-5 45 0 50 2 75 39 l26 39 97 5 c104 5 115 1 115 -49 0 -26 15 -34 68 -37 l43
-2 -4 36 c-3 20 -19 98 -37 172 -18 74 -35 147 -38 162 -2 15 -8 26 -12 23 -5
-3 -6 4 -3 15 5 18 0 20 -55 20 -56 0 -62 -2 -81 -29z m66 -93 c6 -7 10 -20
10 -28 0 -8 4 -36 8 -62 6 -37 4 -48 -6 -49 -8 -1 -25 -3 -39 -4 -61 -7 -88
18 -55 51 8 9 15 24 15 35 0 11 4 18 9 14 9 -5 27 32 23 48 -3 12 25 8 35 -5z"/>
<path d="M2466 4077 c-15 -52 -36 -181 -36 -218 0 -76 54 -115 140 -101 19 3
45 12 58 20 19 13 22 13 22 -1 0 -20 11 -23 63 -19 l43 4 12 66 c30 166 41
218 47 235 6 15 1 17 -47 17 l-55 0 -12 -57 c-34 -161 -55 -190 -133 -184 -31
2 -38 52 -17 137 27 113 28 110 -32 112 -31 0 -51 -4 -53 -11z"/>
<path d="M3814 4060 c-56 -26 -89 -68 -104 -130 -11 -45 -10 -55 8 -93 26 -54
46 -72 104 -86 62 -15 125 -5 172 28 66 44 81 73 81 151 0 64 -2 71 -32 100
-54 53 -153 66 -229 30z m137 -79 c9 -9 19 -35 22 -58 4 -35 1 -45 -22 -66
-80 -77 -167 -13 -126 91 24 60 84 76 126 33z"/>
<path d="M4361 4023 c-6 -26 -12 -71 -14 -99 -1 -29 -5 -50 -9 -48 -3 2 -12
-22 -18 -53 -7 -32 -15 -63 -17 -70 -4 -10 10 -13 51 -13 50 0 56 2 60 23 7
32 36 165 47 214 18 82 15 89 -40 92 l-49 2 -11 -48z"/>
<path d="M4605 4054 c-16 -8 -43 -34 -60 -57 -25 -35 -30 -53 -32 -106 -2 -56
1 -69 23 -99 14 -18 38 -38 52 -44 32 -12 103 -11 117 3 8 8 45 13 45 7 0 -2
-7 -28 -15 -58 -21 -78 -21 -78 35 -82 42 -2 50 0 50 14 0 19 30 173 59 305
30 133 30 132 -24 131 -35 0 -45 -4 -45 -18 0 -27 -11 -31 -30 -8 -23 29 -129
36 -175 12z m131 -66 c83 -30 39 -172 -52 -172 -46 0 -64 23 -64 82 0 37 5 50
30 73 34 33 40 34 86 17z"/>
<path d="M4828 3510 c-18 -11 -22 -67 -5 -87 15 -20 81 -16 105 6 30 26 30 77
0 85 -34 9 -81 7 -100 -4z"/>
<path d="M5846 3471 c-5 -15 -16 -67 -53 -246 -8 -38 -16 -86 -19 -105 -2 -19
-10 -61 -18 -92 l-13 -58 62 0 63 0 7 46 c3 25 9 56 12 67 6 29 53 264 59 302
3 17 9 45 14 63 6 22 5 32 -3 33 -83 7 -107 5 -111 -10z"/>
<path d="M2907 3443 c-4 -3 -7 -27 -7 -53 0 -25 -15 -114 -34 -196 -18 -82
-36 -166 -39 -186 l-6 -38 61 0 c53 0 59 2 54 17 -4 10 -4 14 1 10 4 -5 13 27
20 70 8 44 20 83 28 89 19 14 187 13 192 -1 2 -6 -3 -46 -11 -90 -7 -44 -11
-84 -9 -88 3 -4 30 -7 61 -5 l56 3 13 55 c7 30 19 91 28 135 8 44 24 124 35
178 11 55 20 101 20 103 0 3 -28 4 -62 2 l-63 -3 -19 -85 c-10 -47 -20 -86
-21 -88 -8 -9 -199 -4 -202 5 -2 6 3 38 11 71 26 100 25 102 -42 102 -32 0
-62 -3 -65 -7z"/>
<path d="M5037 3423 c-4 -3 -7 -19 -7 -35 0 -45 -17 -69 -44 -64 -18 3 -26 -1
-30 -17 -15 -55 -4 -75 37 -68 11 2 8 -40 -8 -93 -30 -99 -10 -155 63 -173 35
-9 125 -3 137 8 2 3 2 22 -2 42 -5 31 -9 36 -24 32 -11 -4 -28 -3 -39 0 -16 5
-20 15 -19 53 1 76 20 127 49 130 54 6 69 12 64 26 -3 8 -1 17 5 21 24 14 10
34 -26 37 l-38 3 2 53 2 52 -58 0 c-32 0 -61 -3 -64 -7z"/>
<path d="M3515 3324 c-27 -14 -60 -38 -72 -52 -13 -15 -27 -32 -33 -39 -12
-14 -22 -75 -20 -123 2 -70 72 -134 157 -143 23 -3 44 -3 47 1 3 3 19 7 36 9
81 8 158 96 164 186 8 101 -59 170 -175 181 -44 4 -63 0 -104 -20z m143 -102
c14 -19 16 -108 2 -117 -6 -4 -7 -11 -4 -17 4 -7 2 -8 -4 -4 -7 4 -12 3 -12
-2 0 -12 -46 -32 -74 -32 -32 0 -60 59 -53 107 14 86 58 124 107 95 14 -8 31
-21 38 -30z"/>
<path d="M4008 3340 c-50 -9 -102 -39 -118 -69 -5 -10 -12 -33 -15 -50 -4 -26
0 -37 25 -63 18 -17 37 -28 45 -24 8 3 15 1 15 -4 0 -6 13 -10 30 -10 45 0 80
-20 80 -46 0 -19 -7 -24 -36 -30 -33 -6 -108 4 -146 20 -12 6 -21 -1 -33 -24
-9 -18 -14 -37 -12 -44 8 -21 143 -38 206 -26 55 10 116 41 123 63 3 6 6 33 7
58 2 48 -20 80 -57 84 -9 1 -30 7 -45 14 -16 6 -36 11 -46 11 -26 0 -41 22
-34 48 5 19 12 22 60 22 30 0 67 -7 83 -15 30 -15 30 -15 45 22 15 35 15 39
-1 50 -10 7 -27 13 -38 13 -12 0 -37 2 -56 4 -19 3 -56 1 -82 -4z"/>
<path d="M4485 3342 c-11 -3 -29 -11 -40 -18 -25 -18 -35 -18 -35 1 0 13 -11
15 -57 13 l-58 -3 -6 -40 c-4 -22 -21 -110 -40 -195 -18 -85 -33 -167 -33
-182 -1 -16 -4 -28 -8 -28 -13 0 -9 -48 5 -52 6 -3 33 -6 59 -7 53 -3 47 -13
69 112 11 67 22 80 43 51 14 -19 82 -35 122 -28 33 5 114 44 114 54 0 4 12 20
28 35 15 16 21 25 13 20 -8 -5 -7 1 4 19 26 39 26 127 0 157 -12 14 -14 20 -5
15 8 -4 -4 11 -28 34 -25 24 -49 39 -57 36 -8 -3 -17 -1 -20 4 -6 9 -29 10
-70 2z m50 -107 c45 -44 24 -151 -35 -175 -101 -42 -160 84 -81 169 37 39 81
42 116 6z"/>
<path d="M5430 3341 c-44 -9 -93 -39 -119 -73 -40 -51 -60 -185 -30 -204 5 -3
9 -13 10 -22 0 -23 46 -57 92 -70 37 -11 101 -1 122 19 13 13 25 11 25 -4 0
-9 16 -13 54 -14 l54 0 12 46 c6 25 20 91 31 146 10 55 23 117 28 138 l9 37
-60 0 c-51 0 -61 -3 -65 -20 -3 -11 -9 -20 -13 -20 -4 0 -17 9 -30 20 -13 11
-31 20 -41 20 -9 0 -23 2 -31 4 -7 2 -29 0 -48 -3z m113 -112 c35 -43 10 -141
-43 -169 -25 -13 -74 -5 -90 16 -7 7 -16 12 -20 9 -13 -8 -1 78 16 116 9 20
26 42 38 48 29 15 78 5 99 -20z"/>
<path d="M4795 3323 c-4 -10 -9 -34 -12 -53 -2 -19 -8 -51 -13 -71 -11 -39
-40 -197 -40 -216 0 -8 17 -12 54 -10 l55 2 6 47 c4 26 3 52 -1 59 -4 8 -3 9
4 5 7 -4 13 2 16 16 6 31 17 97 21 128 2 14 8 44 13 68 l10 42 -53 0 c-41 0
-54 -4 -60 -17z"/>
<path d="M1911 1934 c0 -11 3 -14 6 -6 3 7 2 16 -1 19 -3 4 -6 -2 -5 -13z"/>
<path d="M3521 1934 c0 -11 3 -14 6 -6 3 7 2 16 -1 19 -3 4 -6 -2 -5 -13z"/>
<path d="M4036 1933 c-6 -14 -5 -15 5 -6 7 7 10 15 7 18 -3 3 -9 -2 -12 -12z"/>
<path d="M3211 1904 c0 -11 3 -14 6 -6 3 7 2 16 -1 19 -3 4 -6 -2 -5 -13z"/>
<path d="M4502 1895 c0 -16 2 -22 5 -12 2 9 2 23 0 30 -3 6 -5 -1 -5 -18z"/>
<path d="M4591 1904 c0 -11 3 -14 6 -6 3 7 2 16 -1 19 -3 4 -6 -2 -5 -13z"/>
<path d="M1901 1884 c0 -11 3 -14 6 -6 3 7 2 16 -1 19 -3 4 -6 -2 -5 -13z"/>
<path d="M2112 1880 c0 -14 2 -19 5 -12 2 6 2 18 0 25 -3 6 -5 1 -5 -13z"/>
<path d="M2182 1880 c0 -14 2 -19 5 -12 2 6 2 18 0 25 -3 6 -5 1 -5 -13z"/>
<path d="M2292 1880 c0 -14 2 -19 5 -12 2 6 2 18 0 25 -3 6 -5 1 -5 -13z"/>
<path d="M2481 1884 c0 -11 3 -14 6 -6 3 7 2 16 -1 19 -3 4 -6 -2 -5 -13z"/>
<path d="M2801 1884 c0 -11 3 -14 6 -6 3 7 2 16 -1 19 -3 4 -6 -2 -5 -13z"/>
<path d="M2991 1884 c0 -11 3 -14 6 -6 3 7 2 16 -1 19 -3 4 -6 -2 -5 -13z"/>
<path d="M3332 1880 c0 -14 2 -19 5 -12 2 6 2 18 0 25 -3 6 -5 1 -5 -13z"/>
<path d="M3511 1884 c0 -11 3 -14 6 -6 3 7 2 16 -1 19 -3 4 -6 -2 -5 -13z"/>
<path d="M3762 1880 c0 -14 2 -19 5 -12 2 6 2 18 0 25 -3 6 -5 1 -5 -13z"/>
<path d="M3981 1884 c0 -11 3 -14 6 -6 3 7 2 16 -1 19 -3 4 -6 -2 -5 -13z"/>
<path d="M4071 1884 c0 -11 3 -14 6 -6 3 7 2 16 -1 19 -3 4 -6 -2 -5 -13z"/>
<path d="M4161 1884 c0 -11 3 -14 6 -6 3 7 2 16 -1 19 -3 4 -6 -2 -5 -13z"/>
<path d="M4241 1884 c0 -11 3 -14 6 -6 3 7 2 16 -1 19 -3 4 -6 -2 -5 -13z"/>
<path d="M4622 1880 c0 -14 2 -19 5 -12 2 6 2 18 0 25 -3 6 -5 1 -5 -13z"/>
<path d="M4962 1880 c0 -14 2 -19 5 -12 2 6 2 18 0 25 -3 6 -5 1 -5 -13z"/>
<path d="M5142 1880 c0 -14 2 -19 5 -12 2 6 2 18 0 25 -3 6 -5 1 -5 -13z"/>
</g>
</svg>
